<?xml version="1.0" encoding="UTF-8" standalone="no"?>
<!DOCTYPE svg PUBLIC "-//W3C//DTD SVG 1.1//EN" "http://www.w3.org/Graphics/SVG/1.1/DTD/svg11.dtd">
<svg width="100%" height="100%" viewBox="0 0 1613 1620" version="1.1" xmlns="http://www.w3.org/2000/svg" xmlns:xlink="http://www.w3.org/1999/xlink" xml:space="preserve" xmlns:serif="http://www.serif.com/" style="fill-rule:evenodd;clip-rule:evenodd;stroke-linecap:round;stroke-linejoin:round;">
    <g transform="matrix(10.67,0,0,10.67,533.5,1086.5)">
        <g transform="matrix(1,0,0,1,-50,-50)">
            <g transform="matrix(4.166667,0,0,4.166667,0,0)">
                <path d="M12,7.5L13.5,7.5M12,10.5L13.5,10.5M6,13.5L13.5,13.5M6,16.5L13.5,16.5M16.5,7.5L19.875,7.5C20.496,7.5 21,8.004 21,8.625L21,18C21,19.234 19.984,20.25 18.75,20.25M16.5,7.5L16.5,18C16.5,19.234 17.516,20.25 18.75,20.25M16.5,7.5L16.5,4.875C16.5,4.254 15.996,3.75 15.375,3.75L4.125,3.75C3.504,3.75 3,4.254 3,4.875L3,18C3,19.234 4.016,20.25 5.25,20.25L18.75,20.25M6,7.5L9,7.5L9,10.5L6,10.5L6,7.5Z" style="fill:none;fill-rule:nonzero;stroke:url(#_Linear1);stroke-width:1.5px;"/>
            </g>
        </g>
    </g>
    <g transform="matrix(9.12,0,0,9.12,1157,456)">
        <g transform="matrix(1,0,0,1,-50,-50)">
            <g transform="matrix(4.166667,0,0,4.166667,0,0)">
                <path d="M12.75,19.5L12.75,18.75C12.75,14.636 9.364,11.25 5.25,11.25L4.5,11.25M4.5,4.5L5.25,4.5C13.12,4.5 19.5,10.88 19.5,18.75L19.5,19.5M6,18.75C6,19.161 5.661,19.5 5.25,19.5C4.839,19.5 4.5,19.161 4.5,18.75C4.5,18.339 4.839,18 5.25,18C5.661,18 6,18.339 6,18.75Z" style="fill:none;fill-rule:nonzero;stroke:url(#_Linear2);stroke-width:1.5px;"/>
            </g>
        </g>
    </g>
    <defs>
        <linearGradient id="_Linear1" x1="0" y1="0" x2="1" y2="0" gradientUnits="userSpaceOnUse" gradientTransform="matrix(18,0,0,16.5,3,12)"><stop offset="0" style="stop-color:rgb(79,57,246);stop-opacity:1"/><stop offset="1" style="stop-color:rgb(77,23,154);stop-opacity:1"/></linearGradient>
        <linearGradient id="_Linear2" x1="0" y1="0" x2="1" y2="0" gradientUnits="userSpaceOnUse" gradientTransform="matrix(15,0,0,15,4.5,12)"><stop offset="0" style="stop-color:rgb(43,127,255);stop-opacity:1"/><stop offset="1" style="stop-color:rgb(4,63,193);stop-opacity:1"/></linearGradient>
    </defs>
</svg>
