<svg xmlns="http://www.w3.org/2000/svg" xmlns:xlink="http://www.w3.org/1999/xlink" style="isolation:isolate" viewBox="503 302 124 126" width="124pt" height="126pt"><defs><clipPath id="_clipPath_tEPKXEELyevPHZAf2D7KR0i2BRDLAOK4"><rect x="503" y="302" width="124" height="126"/></clipPath></defs><g clip-path="url(#_clipPath_tEPKXEELyevPHZAf2D7KR0i2BRDLAOK4)"><g><path d=" M 562 306.793 C 574.505 313.556 583 326.785 583 342 C 583 342.596 582.987 343.189 582.961 343.778 C 582.861 346.041 584.736 348 587 348 C 609.091 348 627 365.909 627 388 C 627 410.091 609.091 428 587 428 L 513 428 C 507.477 428 503 423.523 503 418 L 503 341.007 L 503.013 340.994 C 503.358 327.025 510.865 314.835 522 307.952 L 522 365.832 C 522 366.835 523.068 367.439 523.912 366.99 L 524.077 366.887 L 541.223 354.343 C 541.682 354.007 542.306 354.007 542.766 354.343 L 559.923 366.895 L 560.088 366.998 C 560.932 367.447 562 366.842 562 365.84 L 562 306.793 Z " fill="rgb(159,159,169)"/><path d=" M 543 302 C 546.875 302 550.62 302.552 554.163 303.58 L 554.163 352.97 L 547.393 348.018 L 547.088 347.804 C 543.906 345.668 539.71 345.739 536.596 348.018 L 529.837 352.962 L 529.837 304.219 C 533.959 302.783 538.388 302 543 302 Z " fill="rgb(255,255,255)"/></g></g></svg>
